<svg width="33" height="32" viewBox="0 0 33 32" fill="none" xmlns="http://www.w3.org/2000/svg">
<path d="M2.64394 28.9582C2.29997 28.6092 2.07735 28.1589 2.00897 27.6736C1.94058 27.1883 2.03005 26.6939 2.26416 26.2633L7.69916 15.999L2.26818 5.73682C2.03447 5.30622 1.94532 4.81186 2.01389 4.32663C2.08246 3.8414 2.30511 3.39098 2.64902 3.04178L2.67978 3.01102C3.01645 2.66801 3.4526 2.43976 3.92628 2.3587C4.39997 2.27764 4.88709 2.34788 5.31845 2.55946L30.0343 13.9014C30.0418 13.9045 30.049 13.9083 30.0558 13.9126C30.446 14.1029 30.7749 14.3989 31.0051 14.7669C31.2353 15.1349 31.3576 15.5601 31.3581 15.9943C31.3585 16.4284 31.2371 16.8541 31.0076 17.2227C30.7782 17.5914 30.4499 17.8883 30.0601 18.0796L30.0386 18.0909L5.31319 29.4394C4.87501 29.6544 4.37961 29.7237 3.89937 29.6371C3.41914 29.5505 2.97924 29.3126 2.64394 28.9582Z" fill="#FF8811" stroke="#FF8811" stroke-opacity="0.19" stroke-width="3" stroke-linejoin="round"/>
</svg>
