<svg width="15" height="17" viewBox="0 0 15 17" fill="none" xmlns="http://www.w3.org/2000/svg">
<path d="M3.3125 11.3125C3.3125 11.5886 3.53636 11.8125 3.8125 11.8125C4.08864 11.8125 4.3125 11.5886 4.3125 11.3125H3.3125ZM3.8125 1L4.16605 0.646447C3.97079 0.451184 3.65421 0.451184 3.45895 0.646447L3.8125 1ZM0.646447 3.45895C0.451184 3.65421 0.451184 3.97079 0.646447 4.16605C0.841709 4.36132 1.15829 4.36132 1.35355 4.16605L0.646447 3.45895ZM6.27145 4.16605C6.46671 4.36132 6.78329 4.36132 6.97855 4.16605C7.17382 3.97079 7.17382 3.65421 6.97855 3.45895L6.27145 4.16605ZM11.8125 5.6875C11.8125 5.41136 11.5886 5.1875 11.3125 5.1875C11.0364 5.1875 10.8125 5.41136 10.8125 5.6875H11.8125ZM11.3125 16L10.9589 16.3536C11.0527 16.4473 11.1799 16.5 11.3125 16.5C11.4451 16.5 11.5723 16.4473 11.6661 16.3536L11.3125 16ZM8.85355 12.8339C8.65829 12.6387 8.34171 12.6387 8.14645 12.8339C7.95119 13.0292 7.95119 13.3458 8.14645 13.5411L8.85355 12.8339ZM14.4786 13.5411C14.6738 13.3458 14.6738 13.0292 14.4786 12.8339C14.2833 12.6387 13.9667 12.6387 13.7714 12.8339L14.4786 13.5411ZM4.3125 11.3125V1H3.3125V11.3125H4.3125ZM3.45895 0.646447L0.646447 3.45895L1.35355 4.16605L4.16605 1.35355L3.45895 0.646447ZM3.45895 1.35355L6.27145 4.16605L6.97855 3.45895L4.16605 0.646447L3.45895 1.35355ZM10.8125 5.6875V16H11.8125V5.6875H10.8125ZM11.6661 15.6464L8.85355 12.8339L8.14645 13.5411L10.9589 16.3536L11.6661 15.6464ZM11.6661 16.3536L14.4786 13.5411L13.7714 12.8339L10.9589 15.6464L11.6661 16.3536Z" fill="white"/>
</svg>
